# xmcd
#
# Track frame offsets:
# 150
# 20027
# 37593
# 55125
# 77882
# 93863
# 114471
# 136672
# 151418
# 169979
# 190376
# 211825
# 232408
# 250575
# 270760
# 291396
#
# Disc length: 4089 seconds
#
#
# Revision: 1
# Processed by: cddbd v1.5.1PL0 Copyright (c) Steve Scherf et al.
# Submitted via: FreeRIP 2.80 
#
DISCID=d40ff710
DTITLE=Jose Augusto - As melhores
DYEAR=1900
DGENRE=
TTITLE0=Fantasias
TTITLE1=Sonho por sonho
TTITLE2=Lua e Flor
TTITLE3=La minha historia
TTITLE4=Indiferenca
TTITLE5=Evidencias
TTITLE6=Aguenta coracao
TTITLE7=Casinha Branca
TTITLE8=Me esqueci de viver
TTITLE9=O sole mio
TTITLE10=Chuvas de verao
TTITLE11=Fui eu
TTITLE12=Eu e voce
TTITLE13=Quase um sonho
TTITLE14=Por eu ter me machucado
TTITLE15=Luzes da Ribalta
EXTD=
EXTT0=
EXTT1=
EXTT2=
EXTT3=
EXTT4=
EXTT5=
EXTT6=
EXTT7=
EXTT8=
EXTT9=
EXTT10=
EXTT11=
EXTT12=
EXTT13=
EXTT14=
EXTT15=
PLAYORDER=
